<svg version="1.1" xmlns="http://www.w3.org/2000/svg" width="100mm" height="100mm" >
<style>
.track {
  fill: none; 
}

.round {
  stroke-linejoin: round;
}

</style>
 <!-- <rect width="100mm" height="100mm"  / -->

  <g transform=""> <!-- g transform="scale(35.43307,35.43307) translate(7,0) rotate(90)" -->
  <circle cx="50mm" cy="50mm" r="0.4mm" stroke="green" stroke-width="0.4mm" />  
  <circle cx="52.54mm" cy="50mm" r="0.4mm" stroke="green" stroke-width="0.4mm" />  
  <circle cx="55.08mm" cy="50mm" r="0.4mm" stroke="green" stroke-width="0.4mm" />  
  <circle cx="57.62mm" cy="50mm" r="0.4mm" stroke="green" stroke-width="0.4mm" />  
  
  <circle cx="50mm" cy="58mm" r="0.4mm" stroke="green" stroke-width="0.4mm" />  
  <circle cx="52.54mm" cy="58mm" r="0.4mm" stroke="green" stroke-width="0.4mm" />  
  <circle cx="55.08mm" cy="58mm" r="0.4mm" stroke="green" stroke-width="0.4mm" />  
  <circle cx="57.62mm" cy="58mm" r="0.4mm" stroke="green" stroke-width="0.4mm" />  
  
  </g>

 <g transform="">
    <rect x="57.125mm" y="20mm" width="1mm" height="30mm" stroke="black" rx="1mm"/>
    <rect x="54.625mm" y="34mm" width="1mm" height="16mm"    stroke="black" rx="1mm" />
    <rect x="10mm" y="20mm"  width="48mm" height="1mm" stroke="black"   />
    

    <rect x="39.5mm" y="34.5mm" height="1mm" width="16mm"  stroke="black" rx="1mm"/> 

    <rect x="39.5mm" y="20mm" height="5mm" width="1mm" stroke="black" rx="1mm"/>
  
  
    <rect x="52.0mm" y="58mm" height="10mm" width="1mm" stroke="black" rx="1mm"/>  
    <rect x="39.5mm" y="67mm" height="1mm" width="13.5mm"  stroke="black" rx="1mm"/> 
    <rect x="39.5mm" y="34.5mm" height="33.5mm" width="1mm"  stroke="black" rx="1mm"/> 

 
    <rect x="54.50mm" y="58mm" height="20mm" width="1mm" stroke="black" rx="1mm"/> 
    <rect x="57.1mm" y="58mm" height="10mm" width="1mm" stroke="black" rx="1mm"/>  
    <rect x="39.5mm" y="77.5mm" height="1mm" width="14.5mm"  stroke="black" rx="1mm"/> 
 </g> 
 
 
 <g>
  <circle cx="40mm" cy="35mm" r="0.4mm" stroke="green" stroke-width="0.4mm" />     
  <circle cx="40mm" cy="25mm" r="0.4mm" stroke="green" stroke-width="0.4mm" />      
  <circle cx="52.54mm" cy="58mm" r="0.4mm" stroke="green" stroke-width="0.4mm" />  
  <circle cx="52.54mm" cy="58mm" r="0.4mm" stroke="green" stroke-width="0.4mm" />    
    <circle cx="55.08mm" cy="78mm" r="0.4mm" stroke="green" stroke-width="0.4mm" />   
    <circle cx="54.08mm" cy="78mm" r="0.4mm" stroke="green" stroke-width="0.4mm" />   
    <circle cx="39.5mm" cy="78mm" r="0.4mm" stroke="green" stroke-width="0.4mm" />   
    <circle cx="39.5mm" cy="67mm" r="0.4mm" stroke="green" stroke-width="0.4mm" />   
   
  <circle cx="57.62mm" cy="68mm" r="0.4mm" stroke="green" stroke-width="0.4mm" />  
  <circle cx="57.62mm" cy="78mm" r="0.4mm" stroke="green" stroke-width="0.4mm" />  
 </g>
 
 
 
</svg>
